<?xml version="1.0" encoding="UTF-8" standalone="no"?>
<svg
   xmlns:dc="http://purl.org/dc/elements/1.1/"
   xmlns:cc="http://creativecommons.org/ns#"
   xmlns:rdf="http://www.w3.org/1999/02/22-rdf-syntax-ns#"
   xmlns:svg="http://www.w3.org/2000/svg"
   xmlns="http://www.w3.org/2000/svg"
   xmlns:sodipodi="http://sodipodi.sourceforge.net/DTD/sodipodi-0.dtd"
   xmlns:inkscape="http://www.inkscape.org/namespaces/inkscape"
   version="1.1"
   width="17.708in"
   height="5.4719999999999995in"
   viewBox=" 0 0 1593.7199999999998 492.47999999999996"
   id="svg26"
   sodipodi:docname="case.svg"
   inkscape:version="0.92.2 (5c3e80d, 2017-08-06)">
  <metadata
     id="metadata32">
    <rdf:RDF>
      <cc:Work
         rdf:about="">
        <dc:format>image/svg+xml</dc:format>
        <dc:type
           rdf:resource="http://purl.org/dc/dcmitype/StillImage" />
        <dc:title />
      </cc:Work>
    </rdf:RDF>
  </metadata>
  <defs
     id="defs30" />
  <sodipodi:namedview
     pagecolor="#ffffff"
     bordercolor="#666666"
     borderopacity="1"
     objecttolerance="10"
     gridtolerance="10"
     guidetolerance="10"
     inkscape:pageopacity="0"
     inkscape:pageshadow="2"
     inkscape:window-width="1920"
     inkscape:window-height="1001"
     id="namedview28"
     showgrid="false"
     inkscape:measure-start="0,525.312"
     inkscape:measure-end="-120.352,423.738"
     inkscape:zoom="1.882271"
     inkscape:cx="367.74097"
     inkscape:cy="176.48352"
     inkscape:window-x="-9"
     inkscape:window-y="-9"
     inkscape:window-maximized="1"
     inkscape:current-layer="svg26" />
  <!-- Front-->
  <g
     transform="translate(0, 0) "
     id="g4">
    <polygon
       style="stroke:#FF0000; fill:none; stroke-width:0.9"
       points="0, 0 45.80999999999999, 0 45.80999999999999, 17.1 91.61999999999998, 17.1 91.61999999999998, 0 127.61999999999998, 0 127.61999999999998, 17.1 163.61999999999998, 17.1 163.61999999999998, 0 199.61999999999998, 0 199.61999999999998, 17.1 235.61999999999998, 17.1 235.61999999999998, 0 271.62, 0 271.62, 17.1 307.62, 17.1 307.62, 0 343.62, 0 343.62, 17.1 379.62, 17.1 379.62, 0 415.62, 0 415.62, 17.1 451.62, 17.1 451.62, 0 487.62, 0 487.62, 17.1 523.62, 17.1 523.62, 0 559.62, 0 559.62, 17.1 605.43, 17.1 605.43, 0 651.24, 0 651.24, 40.24799999999999 634.14, 40.24799999999999 634.14, 80.49599999999998 651.24, 80.49599999999998 651.24, 120.74399999999997 634.14, 120.74399999999997 634.14, 160.99199999999996 651.24, 160.99199999999996 651.24, 201.23999999999998 605.43, 201.23999999999998 605.43, 184.14 559.62, 184.14 559.62, 201.23999999999998 523.62, 201.23999999999998 523.62, 184.14 487.62, 184.14 487.62, 201.23999999999998 451.62, 201.23999999999998 451.62, 184.14 415.62, 184.14 415.62, 201.23999999999998 379.62, 201.23999999999998 379.62, 184.14 343.62, 184.14 343.62, 201.23999999999998 307.62, 201.23999999999998 307.62, 184.14 271.62, 184.14 271.62, 201.23999999999998 235.61999999999998, 201.23999999999998 235.61999999999998, 184.14 199.61999999999998, 184.14 199.61999999999998, 201.23999999999998 163.61999999999998, 201.23999999999998 163.61999999999998, 184.14 127.61999999999998, 184.14 127.61999999999998, 201.23999999999998 91.61999999999998, 201.23999999999998 91.61999999999998, 184.14 45.80999999999999, 184.14 45.80999999999999, 201.23999999999998 0, 201.23999999999995 0, 160.99199999999996 17.1, 160.99199999999996 17.1, 120.74399999999997 0, 120.74399999999997 0, 80.49599999999998 17.1, 80.49599999999998 17.1, 40.24799999999999 0, 40.24799999999999 "
       id="polygon2" />
  </g>
  <!-- Back-->
  <g
     transform="translate(651.24, 0) "
     id="g8">
    <polygon
       style="stroke:#FF0000; fill:none; stroke-width:0.9"
       points="0, 0 45.80999999999999, 0 45.80999999999999, 17.1 91.61999999999998, 17.1 91.61999999999998, 0 127.61999999999998, 0 127.61999999999998, 17.1 163.61999999999998, 17.1 163.61999999999998, 0 199.61999999999998, 0 199.61999999999998, 17.1 235.61999999999998, 17.1 235.61999999999998, 0 271.62, 0 271.62, 17.1 307.62, 17.1 307.62, 0 343.62, 0 343.62, 17.1 379.62, 17.1 379.62, 0 415.62, 0 415.62, 17.1 451.62, 17.1 451.62, 0 487.62, 0 487.62, 17.1 523.62, 17.1 523.62, 0 559.62, 0 559.62, 17.1 605.43, 17.1 605.43, 0 651.24, 0 651.24, 40.24799999999999 634.14, 40.24799999999999 634.14, 80.49599999999998 651.24, 80.49599999999998 651.24, 120.74399999999997 634.14, 120.74399999999997 634.14, 160.99199999999996 651.24, 160.99199999999996 651.24, 201.23999999999998 605.43, 201.23999999999998 605.43, 184.14 559.62, 184.14 559.62, 201.23999999999998 523.62, 201.23999999999998 523.62, 184.14 487.62, 184.14 487.62, 201.23999999999998 451.62, 201.23999999999998 451.62, 184.14 415.62, 184.14 415.62, 201.23999999999998 379.62, 201.23999999999998 379.62, 184.14 343.62, 184.14 343.62, 201.23999999999998 307.62, 201.23999999999998 307.62, 184.14 271.62, 184.14 271.62, 201.23999999999998 235.61999999999998, 201.23999999999998 235.61999999999998, 184.14 199.61999999999998, 184.14 199.61999999999998, 201.23999999999998 163.61999999999998, 201.23999999999998 163.61999999999998, 184.14 127.61999999999998, 184.14 127.61999999999998, 201.23999999999998 91.61999999999998, 201.23999999999998 91.61999999999998, 184.14 45.80999999999999, 184.14 45.80999999999999, 201.23999999999998 0, 201.23999999999995 0, 160.99199999999996 17.1, 160.99199999999996 17.1, 120.74399999999997 0, 120.74399999999997 0, 80.49599999999998 17.1, 80.49599999999998 17.1, 40.24799999999999 0, 40.24799999999999 "
       id="polygon6" />
  </g>
  <!-- Left-->
  <g
     transform="translate(1302.48, 0) "
     id="g12">
    <polygon
       style="stroke:#FF0000; fill:none; stroke-width:0.9"
       points="17.1, 0 45.80999999999999, 0 45.80999999999999, 17.1 91.61999999999998, 17.1 91.61999999999998, 0 127.61999999999998, 0 127.61999999999998, 17.1 163.61999999999998, 17.1 163.61999999999998, 0 199.61999999999998, 0 199.61999999999998, 17.1 245.42999999999995, 17.1 245.42999999999995, 0 274.13999999999993, 0 274.13999999999993, 40.24799999999999 291.23999999999995, 40.24799999999999 291.23999999999995, 80.49599999999998 274.13999999999993, 80.49599999999998 274.13999999999993, 120.74399999999997 291.23999999999995, 120.74399999999997 291.23999999999995, 160.99199999999996 274.13999999999993, 160.99199999999996 274.13999999999993, 201.23999999999998 245.42999999999995, 201.23999999999998 245.42999999999995, 184.14 199.61999999999998, 184.14 199.61999999999998, 201.23999999999998 163.61999999999998, 201.23999999999998 163.61999999999998, 184.14 127.61999999999998, 184.14 127.61999999999998, 201.23999999999998 91.61999999999998, 201.23999999999998 91.61999999999998, 184.14 45.80999999999999, 184.14 45.80999999999999, 201.23999999999998 17.1, 201.23999999999995 17.1, 160.99199999999996 0, 160.99199999999996 0, 120.74399999999997 17.1, 120.74399999999997 17.1, 80.49599999999998 0, 80.49599999999998 0, 40.24799999999999 17.1, 40.24799999999999 "
       id="polygon10" />
  </g>
  <!-- Right-->
  <g
     transform="translate(1302.48, 201.23999999999998) "
     id="g16">
    <polygon
       style="stroke:#FF0000; fill:none; stroke-width:0.9"
       points="17.1, 0 45.80999999999999, 0 45.80999999999999, 17.1 91.61999999999998, 17.1 91.61999999999998, 0 127.61999999999998, 0 127.61999999999998, 17.1 163.61999999999998, 17.1 163.61999999999998, 0 199.61999999999998, 0 199.61999999999998, 17.1 245.42999999999995, 17.1 245.42999999999995, 0 274.13999999999993, 0 274.13999999999993, 40.24799999999999 291.23999999999995, 40.24799999999999 291.23999999999995, 80.49599999999998 274.13999999999993, 80.49599999999998 274.13999999999993, 120.74399999999997 291.23999999999995, 120.74399999999997 291.23999999999995, 160.99199999999996 274.13999999999993, 160.99199999999996 274.13999999999993, 201.23999999999998 245.42999999999995, 201.23999999999998 245.42999999999995, 184.14 199.61999999999998, 184.14 199.61999999999998, 201.23999999999998 163.61999999999998, 201.23999999999998 163.61999999999998, 184.14 127.61999999999998, 184.14 127.61999999999998, 201.23999999999998 91.61999999999998, 201.23999999999998 91.61999999999998, 184.14 45.80999999999999, 184.14 45.80999999999999, 201.23999999999998 17.1, 201.23999999999995 17.1, 160.99199999999996 0, 160.99199999999996 0, 120.74399999999997 17.1, 120.74399999999997 17.1, 80.49599999999998 0, 80.49599999999998 0, 40.24799999999999 17.1, 40.24799999999999 "
       id="polygon14" />
  </g>
  <!-- Top-->
  <polygon
     id="polygon18"
     points="45.81,0 91.62,0 91.62,17.1 127.62,17.1 127.62,0 163.62,0 163.62,17.1 199.62,17.1 199.62,0 235.62,0 235.62,17.1 271.62,17.1 271.62,0 307.62,0 307.62,17.1 343.62,17.1 343.62,0 379.62,0 379.62,17.1 415.62,17.1 415.62,0 451.62,0 451.62,17.1 487.62,17.1 487.62,0 523.62,0 523.62,17.1 559.62,17.1 559.62,0 605.43,0 605.43,17.1 634.14,17.1 634.14,45.81 651.24,45.81 651.24,91.62 634.14,91.62 634.14,127.62 651.24,127.62 651.24,163.62 634.14,163.62 634.14,199.62 651.24,199.62 651.24,245.43 634.14,245.43 634.14,274.14 605.43,274.14 605.43,291.24 559.62,291.24 559.62,274.14 523.62,274.14 523.62,291.24 487.62,291.24 487.62,274.14 451.62,274.14 451.62,291.24 415.62,291.24 415.62,274.14 379.62,274.14 379.62,291.24 343.62,291.24 343.62,274.14 307.62,274.14 307.62,291.24 271.62,291.24 271.62,274.14 235.62,274.14 235.62,291.24 199.62,291.24 199.62,274.14 163.62,274.14 163.62,291.24 127.62,291.24 127.62,274.14 91.62,274.14 91.62,291.24 45.81,291.24 45.81,274.14 17.1,274.14 17.1,245.43 0,245.43 0,199.62 17.1,199.62 17.1,163.62 0,163.62 0,127.62 17.1,127.62 17.1,91.62 0,91.62 0,45.81 17.1,45.81 17.1,17.1 45.81,17.1 "
     style="fill:none;stroke:#ff0000;stroke-width:0.89999998"
     transform="translate(0,201.24)" />
  <text
     id="text4567"
     y="118.53876"
     x="216.72905"
     style="font-style:normal;font-weight:normal;font-size:60.0615921px;line-height:1.25;font-family:sans-serif;letter-spacing:0px;word-spacing:0px;fill:#000000;fill-opacity:1;stroke:none;stroke-width:1.50153983"
     xml:space="preserve"><tspan
       style="font-style:normal;font-variant:normal;font-weight:normal;font-stretch:normal;font-family:monospace;-inkscape-font-specification:monospace;stroke-width:1.50153983"
       y="118.53876"
       x="216.72905"
       id="tspan4565"
       sodipodi:role="line">facade</tspan></text>
  <!-- Bottom-->
  <g
     transform="translate(651.24, 201.23999999999998) "
     id="g24">
    <polygon
       style="stroke:#FF0000; fill:none; stroke-width:0.9"
       points="17.1, 17.1 45.80999999999999, 17.1 45.80999999999999, 0 91.61999999999998, 0 91.61999999999998, 17.1 127.61999999999998, 17.1 127.61999999999998, 0 163.61999999999998, 0 163.61999999999998, 17.1 199.61999999999998, 17.1 199.61999999999998, 0 235.61999999999998, 0 235.61999999999998, 17.1 271.62, 17.1 271.62, 0 307.62, 0 307.62, 17.1 343.62, 17.1 343.62, 0 379.62, 0 379.62, 17.1 415.62, 17.1 415.62, 0 451.62, 0 451.62, 17.1 487.62, 17.1 487.62, 0 523.62, 0 523.62, 17.1 559.62, 17.1 559.62, 0 605.43, 0 605.43, 17.1 634.14, 17.1 634.14, 45.80999999999999 651.24, 45.80999999999999 651.24, 91.61999999999998 634.14, 91.61999999999998 634.14, 127.61999999999998 651.24, 127.61999999999998 651.24, 163.61999999999998 634.14, 163.61999999999998 634.14, 199.61999999999998 651.24, 199.61999999999998 651.24, 245.42999999999995 634.14, 245.42999999999995 634.14, 274.13999999999993 605.43, 274.13999999999993 605.43, 291.23999999999995 559.62, 291.23999999999995 559.62, 274.13999999999993 523.62, 274.13999999999993 523.62, 291.23999999999995 487.62, 291.23999999999995 487.62, 274.13999999999993 451.62, 274.13999999999993 451.62, 291.23999999999995 415.62, 291.23999999999995 415.62, 274.13999999999993 379.62, 274.13999999999993 379.62, 291.23999999999995 343.62, 291.23999999999995 343.62, 274.13999999999993 307.62, 274.13999999999993 307.62, 291.23999999999995 271.62, 291.23999999999995 271.62, 274.13999999999993 235.61999999999998, 274.13999999999993 235.61999999999998, 291.23999999999995 199.61999999999998, 291.23999999999995 199.61999999999998, 274.13999999999993 163.61999999999998, 274.13999999999993 163.61999999999998, 291.23999999999995 127.61999999999998, 291.23999999999995 127.61999999999998, 274.13999999999993 91.61999999999998, 274.13999999999993 91.61999999999998, 291.23999999999995 45.80999999999999, 291.23999999999995 45.80999999999999, 274.13999999999993 17.1, 274.13999999999993 17.1, 245.42999999999995 0, 245.42999999999995 0, 199.61999999999998 17.1, 199.61999999999998 17.1, 163.61999999999998 0, 163.61999999999998 0, 127.61999999999998 17.1, 127.61999999999998 17.1, 91.61999999999998 0, 91.61999999999998 0, 45.80999999999999 17.1, 45.80999999999999 "
       id="polygon22" />
  </g>
  <flowRoot
     xml:space="preserve"
     id="flowRoot3728"
     style="fill:black;fill-opacity:1;stroke:none;font-family:sans-serif;font-style:normal;font-weight:normal;font-size:40px;line-height:1.25;letter-spacing:0px;word-spacing:0px"><flowRegion
       id="flowRegion3730"><rect
         id="rect3732"
         width="149.18599"
         height="86.5028"
         x="149.18599"
         y="334.75513" /></flowRegion><flowPara
       id="flowPara3734" /></flowRoot>  <flowRoot
     xml:space="preserve"
     id="flowRoot4573"
     style="fill:black;fill-opacity:1;stroke:none;font-family:sans-serif;font-style:normal;font-weight:normal;font-size:40px;line-height:1.25;letter-spacing:0px;word-spacing:0px"><flowRegion
       id="flowRegion4575"><rect
         id="rect4577"
         width="151.76939"
         height="110.44604"
         x="89.408707"
         y="241.30789" /></flowRegion><flowPara
       id="flowPara4579" /></flowRoot>  <text
     xml:space="preserve"
     style="font-style:normal;font-weight:normal;font-size:21.00643158px;line-height:1.25;font-family:sans-serif;letter-spacing:0px;word-spacing:0px;fill:#000000;fill-opacity:1;stroke:none;stroke-width:0.52516079"
     x="73.303062"
     y="400.88809"
     id="text3726"><tspan
       sodipodi:role="line"
       id="tspan3724"
       x="73.303062"
       y="400.88809"
       style="font-style:normal;font-variant:normal;font-weight:normal;font-stretch:normal;font-family:monospace;-inkscape-font-specification:monospace;stroke-width:0.52516079">pixelate</tspan></text>
  <ellipse
     id="path4571"
     cx="123.11128"
     cy="346.85999"
     style="fill:none;fill-opacity:1;stroke:#ff0000;stroke-width:0.28874213;stroke-opacity:1"
     rx="12.257204"
     ry="12.257203" />
  <text
     xml:space="preserve"
     style="font-style:normal;font-weight:normal;font-size:37.5px;line-height:1.25;font-family:sans-serif;letter-spacing:0px;word-spacing:0px;fill:#000000;fill-opacity:1;stroke:none;stroke-width:0.9375"
     x="226.96677"
     y="400.45337"
     id="text3738"><tspan
       sodipodi:role="line"
       x="226.96677"
       y="400.45337"
       style="font-style:normal;font-variant:normal;font-weight:normal;font-stretch:normal;font-size:21px;font-family:monospace;-inkscape-font-specification:monospace;stroke-width:0.9375"
       id="tspan3740">color</tspan></text>
  <ellipse
     style="fill:none;fill-opacity:1;stroke:#ff0000;stroke-width:0.28874213;stroke-opacity:1"
     cy="346.85999"
     cx="258.73849"
     id="circle4584"
     rx="12.257204"
     ry="12.257203" />
  <text
     xml:space="preserve"
     style="font-style:normal;font-weight:normal;font-size:20.85276794px;line-height:1.25;font-family:sans-serif;letter-spacing:0px;word-spacing:0px;fill:#000000;fill-opacity:1;stroke:none;stroke-width:0.52131921"
     x="393.6633"
     y="400.88403"
     id="text3746"><tspan
       sodipodi:role="line"
       id="tspan3744"
       x="393.6633"
       y="400.88403"
       style="font-style:normal;font-variant:normal;font-weight:normal;font-stretch:normal;font-size:21px;font-family:monospace;-inkscape-font-specification:monospace;text-align:center;text-anchor:middle;stroke-width:0.52131921">glitch</tspan><tspan
       sodipodi:role="line"
       x="393.6633"
       y="427.47333"
       style="font-style:normal;font-variant:normal;font-weight:normal;font-stretch:normal;font-size:21px;font-family:monospace;-inkscape-font-specification:monospace;text-align:center;text-anchor:middle;stroke-width:0.52131921"
       id="tspan3754">intensity</tspan></text>
  <ellipse
     style="fill:none;fill-opacity:1;stroke:#ff0000;stroke-width:0.28874213;stroke-opacity:1"
     cy="346.85999"
     cx="394.36569"
     id="circle4584-0"
     rx="12.257203"
     ry="12.257204" />
  <text
     xml:space="preserve"
     style="font-style:normal;font-weight:normal;font-size:19.90149879px;line-height:1.25;font-family:sans-serif;letter-spacing:0px;word-spacing:0px;fill:#000000;fill-opacity:1;stroke:none;stroke-width:0.49753743"
     x="530.04419"
     y="400.88403"
     id="text3750"><tspan
       sodipodi:role="line"
       id="tspan3748"
       x="530.04419"
       y="400.88403"
       style="font-style:normal;font-variant:normal;font-weight:normal;font-stretch:normal;font-size:21px;font-family:monospace;-inkscape-font-specification:monospace;text-align:center;text-anchor:middle;stroke-width:0.49753743">glitch</tspan><tspan
       sodipodi:role="line"
       x="530.04419"
       y="427.13403"
       style="font-style:normal;font-variant:normal;font-weight:normal;font-stretch:normal;font-size:21px;font-family:monospace;-inkscape-font-specification:monospace;text-align:center;text-anchor:middle;stroke-width:0.49753743"
       id="tspan3752">height</tspan></text>
  <ellipse
     style="fill:none;fill-opacity:1;stroke:#ff0000;stroke-width:0.28874213;stroke-opacity:1"
     cy="346.85999"
     cx="529.99292"
     id="circle4584-9"
     rx="12.257204"
     ry="12.257203" />
  <ellipse
     style="fill:none;fill-opacity:1;stroke:#ff0000;stroke-width:1.6290375;stroke-opacity:1"
     id="path4651"
     cx="1379.5004"
     cy="327.02167"
     rx="34.618549"
     ry="34.618553" />
</svg>
